<svg xmlns="http://www.w3.org/2000/svg" viewBox="0 0 24 24" width="100" height="100" fill="none" stroke="currentColor" stroke-width="2" stroke-linecap="round" stroke-linejoin="round">
  <path d="M4 12c0-2.2 3.6-4 8-4s8 1.8 8 4-3.6 4-8 4-8-1.8-8-4z" />
  <path d="M4 8c0-1.1 3.6-2 8-2s8 .9 8 2" />
  <path d="M4 16c0 1.1 3.6 2 8 2s8-.9 8-2" />
  <line x1="6" y1="10" x2="6" y2="14" />
  <line x1="18" y1="10" x2="18" y2="14" />
  <path d="M8 9c.9-.9 2.1-.9 3 0" />
  <path d="M13 15c.9-.9 2.1-.9 3 0" />
</svg>
