<svg xmlns="http://www.w3.org/2000/svg" viewBox="0 0 24 24" width="100" height="100" fill="none" stroke="currentColor" stroke-width="2" stroke-linecap="round" stroke-linejoin="round">
  <path d="M3 10h18a9 9 0 0 1-9 9 9 9 0 0 1-9-9z" />
  <path d="M5 8c1-1 2.5-1 3.5 0 .5-1.5 2-2 3-1 .5-1 2-1.5 3-1 1-.5 2.5 0 3 1 .5-1 2-1 3-.5" />
  <path d="M7 6c1-2 4-2 5 0" />
  <path d="M12 6c1-2 4-2 5 0" />
  <path d="M3 10l2 9a2 2 0 0 0 2 2h10a2 2 0 0 0 2-2l2-9" />
  <path d="M12 15v4" />
  <path d="M8 13v2" />
  <path d="M16 13v2" />
</svg>