<svg xmlns="http://www.w3.org/2000/svg" viewBox="0 0 24 24" width="100" height="100" fill="none" stroke="currentColor" stroke-width="2" stroke-linecap="round" stroke-linejoin="round">
  <path d="M3 11h18a1 1 0 0 1 1 1v2a1 1 0 0 1-1 1H3a1 1 0 0 1-1-1v-2a1 1 0 0 1 1-1z" />
  <path d="M3 7h18a1 1 0 0 1 1 1v2a1 1 0 0 1-1 1H3a1 1 0 0 1-1-1V8a1 1 0 0 1 1-1z" />
  <path d="M3 15h18a1 1 0 0 1 1 1v2a1 1 0 0 1-1 1H3a1 1 0 0 1-1-1v-2a1 1 0 0 1 1-1z" />
  <path d="M5 7v10" />
  <path d="M19 7v10" />
  <path d="M7 11c.9-.9 2.1-.9 3 0" />
  <path d="M14 11c.9-.9 2.1-.9 3 0" />
</svg>